<svg xmlns="http://www.w3.org/2000/svg" xmlns:xlink="http://www.w3.org/1999/xlink" width="201" zoomAndPan="magnify" viewBox="0 0 150.75 150.749998" height="201" preserveAspectRatio="xMidYMid meet" version="1.2"><defs><clipPath id="ec2602bc10"><path d="M 0 0 L 149.796875 0 L 149.796875 149.796875 L 0 149.796875 Z M 0 0 "/></clipPath><clipPath id="b8e76152ef"><path d="M 37.4375 0 L 112.359375 0 C 133.035156 0 149.796875 16.761719 149.796875 37.4375 L 149.796875 112.359375 C 149.796875 133.035156 133.035156 149.796875 112.359375 149.796875 L 37.4375 149.796875 C 16.761719 149.796875 0 133.035156 0 112.359375 L 0 37.4375 C 0 16.761719 16.761719 0 37.4375 0 Z M 37.4375 0 "/></clipPath><linearGradient x1="0.000000000000018185" gradientTransform="matrix(0.585138,0,0,0.585138,0.00000125,0.00000199669)" y1="0.000000000000018185" x2="255.999995" gradientUnits="userSpaceOnUse" y2="255.999995" id="7a3cb76970"><stop style="stop-color:#2563eb;stop-opacity:1;" offset="0"/><stop style="stop-color:#2563eb;stop-opacity:1;" offset="0.015625"/><stop style="stop-color:#2662eb;stop-opacity:1;" offset="0.03125"/><stop style="stop-color:#2762eb;stop-opacity:1;" offset="0.046875"/><stop style="stop-color:#2761eb;stop-opacity:1;" offset="0.0625"/><stop style="stop-color:#2861eb;stop-opacity:1;" offset="0.078125"/><stop style="stop-color:#2960eb;stop-opacity:1;" offset="0.09375"/><stop style="stop-color:#2960ea;stop-opacity:1;" offset="0.109375"/><stop style="stop-color:#2a60ea;stop-opacity:1;" offset="0.125"/><stop style="stop-color:#2b5fea;stop-opacity:1;" offset="0.140625"/><stop style="stop-color:#2b5fea;stop-opacity:1;" offset="0.15625"/><stop style="stop-color:#2c5eea;stop-opacity:1;" offset="0.171875"/><stop style="stop-color:#2d5eea;stop-opacity:1;" offset="0.1875"/><stop style="stop-color:#2d5dea;stop-opacity:1;" offset="0.203125"/><stop style="stop-color:#2e5dea;stop-opacity:1;" offset="0.21875"/><stop style="stop-color:#2f5cea;stop-opacity:1;" offset="0.234375"/><stop style="stop-color:#2f5cea;stop-opacity:1;" offset="0.25"/><stop style="stop-color:#305cea;stop-opacity:1;" offset="0.265625"/><stop style="stop-color:#305be9;stop-opacity:1;" offset="0.28125"/><stop style="stop-color:#315be9;stop-opacity:1;" offset="0.296875"/><stop style="stop-color:#325ae9;stop-opacity:1;" offset="0.3125"/><stop style="stop-color:#325ae9;stop-opacity:1;" offset="0.328125"/><stop style="stop-color:#3359e9;stop-opacity:1;" offset="0.34375"/><stop style="stop-color:#3459e9;stop-opacity:1;" offset="0.359375"/><stop style="stop-color:#3458e9;stop-opacity:1;" offset="0.375"/><stop style="stop-color:#3558e9;stop-opacity:1;" offset="0.390625"/><stop style="stop-color:#3657e9;stop-opacity:1;" offset="0.40625"/><stop style="stop-color:#3657e9;stop-opacity:1;" offset="0.421875"/><stop style="stop-color:#3757e8;stop-opacity:1;" offset="0.4375"/><stop style="stop-color:#3856e8;stop-opacity:1;" offset="0.453125"/><stop style="stop-color:#3856e8;stop-opacity:1;" offset="0.46875"/><stop style="stop-color:#3955e8;stop-opacity:1;" offset="0.484375"/><stop style="stop-color:#3a55e8;stop-opacity:1;" offset="0.5"/><stop style="stop-color:#3a55e8;stop-opacity:1;" offset="0.5"/><stop style="stop-color:#3a54e8;stop-opacity:1;" offset="0.515625"/><stop style="stop-color:#3b54e8;stop-opacity:1;" offset="0.53125"/><stop style="stop-color:#3c53e8;stop-opacity:1;" offset="0.546875"/><stop style="stop-color:#3c53e8;stop-opacity:1;" offset="0.5625"/><stop style="stop-color:#3d53e8;stop-opacity:1;" offset="0.578125"/><stop style="stop-color:#3e52e8;stop-opacity:1;" offset="0.59375"/><stop style="stop-color:#3e52e7;stop-opacity:1;" offset="0.609375"/><stop style="stop-color:#3f51e7;stop-opacity:1;" offset="0.625"/><stop style="stop-color:#4051e7;stop-opacity:1;" offset="0.640625"/><stop style="stop-color:#4050e7;stop-opacity:1;" offset="0.65625"/><stop style="stop-color:#4150e7;stop-opacity:1;" offset="0.671875"/><stop style="stop-color:#424fe7;stop-opacity:1;" offset="0.6875"/><stop style="stop-color:#424fe7;stop-opacity:1;" offset="0.703125"/><stop style="stop-color:#434ee7;stop-opacity:1;" offset="0.71875"/><stop style="stop-color:#444ee7;stop-opacity:1;" offset="0.734375"/><stop style="stop-color:#444ee7;stop-opacity:1;" offset="0.75"/><stop style="stop-color:#454de6;stop-opacity:1;" offset="0.765625"/><stop style="stop-color:#464de6;stop-opacity:1;" offset="0.78125"/><stop style="stop-color:#464ce6;stop-opacity:1;" offset="0.796875"/><stop style="stop-color:#474ce6;stop-opacity:1;" offset="0.8125"/><stop style="stop-color:#474be6;stop-opacity:1;" offset="0.828125"/><stop style="stop-color:#484be6;stop-opacity:1;" offset="0.84375"/><stop style="stop-color:#494ae6;stop-opacity:1;" offset="0.859375"/><stop style="stop-color:#494ae6;stop-opacity:1;" offset="0.875"/><stop style="stop-color:#4a4ae6;stop-opacity:1;" offset="0.890625"/><stop style="stop-color:#4b49e6;stop-opacity:1;" offset="0.90625"/><stop style="stop-color:#4b49e6;stop-opacity:1;" offset="0.921875"/><stop style="stop-color:#4c48e5;stop-opacity:1;" offset="0.9375"/><stop style="stop-color:#4d48e5;stop-opacity:1;" offset="0.953125"/><stop style="stop-color:#4d47e5;stop-opacity:1;" offset="0.96875"/><stop style="stop-color:#4e47e5;stop-opacity:1;" offset="0.984375"/><stop style="stop-color:#4f46e5;stop-opacity:1;" offset="1"/></linearGradient><clipPath id="a41c2dcfeb"><path d="M 37.753906 27.605469 L 111.878906 27.605469 L 111.878906 121.949219 L 37.753906 121.949219 Z M 37.753906 27.605469 "/></clipPath><clipPath id="e7f419614b"><path d="M 37.753906 64.75 L 37.753906 85.042969 C 37.753906 105.558594 54.382812 122.1875 74.898438 122.1875 C 95.414062 122.1875 112.042969 105.558594 112.042969 85.042969 L 112.042969 64.75 C 112.042969 44.238281 95.414062 27.605469 74.898438 27.605469 C 54.382812 27.605469 37.753906 44.238281 37.753906 64.75 Z M 37.753906 64.75 "/></clipPath></defs><g id="08dec54a62"><g clip-rule="nonzero" clip-path="url(#ec2602bc10)"><g clip-rule="nonzero" clip-path="url(#b8e76152ef)"><path style=" stroke:none;fill-rule:nonzero;fill:url(#7a3cb76970);" d="M 0 0 L 0 149.796875 L 149.796875 149.796875 L 149.796875 0 Z M 0 0 "/></g></g><g clip-rule="nonzero" clip-path="url(#a41c2dcfeb)"><g clip-rule="nonzero" clip-path="url(#e7f419614b)"><path style=" stroke:none;fill-rule:evenodd;fill:#ffffff;fill-opacity:1;" d="M 74.800781 27.605469 C 54.417969 27.605469 37.867188 44.15625 37.867188 64.539062 C 37.867188 73.863281 43.421875 84.953125 50.289062 94.820312 C 60.15625 109 72.492188 120.695312 72.492188 120.695312 C 73.785156 121.917969 75.8125 121.917969 77.109375 120.695312 C 77.109375 120.695312 89.445312 109 99.3125 94.820312 C 106.179688 84.953125 111.730469 73.863281 111.730469 64.539062 C 111.730469 44.15625 95.183594 27.605469 74.800781 27.605469 Z M 74.800781 34.320312 C 91.476562 34.320312 105.015625 47.863281 105.015625 64.539062 C 105.015625 72.722656 99.828125 82.324219 93.800781 90.984375 C 86.886719 100.917969 78.710938 109.585938 74.800781 113.539062 C 70.890625 109.585938 62.714844 100.917969 55.800781 90.984375 C 49.773438 82.324219 44.582031 72.722656 44.582031 64.539062 C 44.582031 47.863281 58.125 34.320312 74.800781 34.320312 Z M 74.800781 46.070312 C 64.605469 46.070312 56.335938 54.34375 56.335938 64.539062 C 56.335938 74.730469 64.605469 83.003906 74.800781 83.003906 C 84.992188 83.003906 93.265625 74.730469 93.265625 64.539062 C 93.265625 54.34375 84.992188 46.070312 74.800781 46.070312 Z M 74.800781 52.785156 C 81.285156 52.785156 86.550781 58.050781 86.550781 64.539062 C 86.550781 71.023438 81.285156 76.289062 74.800781 76.289062 C 68.3125 76.289062 63.050781 71.023438 63.050781 64.539062 C 63.050781 58.050781 68.3125 52.785156 74.800781 52.785156 Z M 74.800781 52.785156 "/></g></g></g></svg>