<svg xmlns="http://www.w3.org/2000/svg" xmlns:xlink="http://www.w3.org/1999/xlink" width="3000" zoomAndPan="magnify" viewBox="0 0 2250 2250.000011" height="3000" preserveAspectRatio="xMidYMid meet" version="1.2"><defs><clipPath id="57d03aeb35"><path d="M 0.5 0 L 2249.5 0 L 2249.5 2249 L 0.5 2249 Z M 0.5 0 "/></clipPath><clipPath id="0d2c364bf9"><path d="M 450.300781 0 L 1799.699219 0 C 2048.117188 0 2249.5 201.382812 2249.5 449.800781 L 2249.5 1799.199219 C 2249.5 2047.617188 2048.117188 2249 1799.699219 2249 L 450.300781 2249 C 201.882812 2249 0.5 2047.617188 0.5 1799.199219 L 0.5 449.800781 C 0.5 201.382812 201.882812 0 450.300781 0 Z M 450.300781 0 "/></clipPath><linearGradient x1="0.000000000000009701" gradientTransform="matrix(8.785158,0,0,8.785158,0.499772,0.0000999556)" y1="0.000000000000009701" x2="255.999989" gradientUnits="userSpaceOnUse" y2="255.999989" id="37cff8fcba"><stop style="stop-color:#2563eb;stop-opacity:1;" offset="0"/><stop style="stop-color:#2563eb;stop-opacity:1;" offset="0.015625"/><stop style="stop-color:#2662eb;stop-opacity:1;" offset="0.03125"/><stop style="stop-color:#2762eb;stop-opacity:1;" offset="0.046875"/><stop style="stop-color:#2761eb;stop-opacity:1;" offset="0.0625"/><stop style="stop-color:#2861eb;stop-opacity:1;" offset="0.078125"/><stop style="stop-color:#2960eb;stop-opacity:1;" offset="0.09375"/><stop style="stop-color:#2960ea;stop-opacity:1;" offset="0.109375"/><stop style="stop-color:#2a60ea;stop-opacity:1;" offset="0.125"/><stop style="stop-color:#2b5fea;stop-opacity:1;" offset="0.140625"/><stop style="stop-color:#2b5fea;stop-opacity:1;" offset="0.15625"/><stop style="stop-color:#2c5eea;stop-opacity:1;" offset="0.171875"/><stop style="stop-color:#2d5eea;stop-opacity:1;" offset="0.1875"/><stop style="stop-color:#2d5dea;stop-opacity:1;" offset="0.203125"/><stop style="stop-color:#2e5dea;stop-opacity:1;" offset="0.21875"/><stop style="stop-color:#2f5cea;stop-opacity:1;" offset="0.234375"/><stop style="stop-color:#2f5cea;stop-opacity:1;" offset="0.25"/><stop style="stop-color:#305cea;stop-opacity:1;" offset="0.265625"/><stop style="stop-color:#305be9;stop-opacity:1;" offset="0.28125"/><stop style="stop-color:#315be9;stop-opacity:1;" offset="0.296875"/><stop style="stop-color:#325ae9;stop-opacity:1;" offset="0.3125"/><stop style="stop-color:#325ae9;stop-opacity:1;" offset="0.328125"/><stop style="stop-color:#3359e9;stop-opacity:1;" offset="0.34375"/><stop style="stop-color:#3459e9;stop-opacity:1;" offset="0.359375"/><stop style="stop-color:#3458e9;stop-opacity:1;" offset="0.375"/><stop style="stop-color:#3558e9;stop-opacity:1;" offset="0.390625"/><stop style="stop-color:#3657e9;stop-opacity:1;" offset="0.40625"/><stop style="stop-color:#3657e9;stop-opacity:1;" offset="0.421875"/><stop style="stop-color:#3757e8;stop-opacity:1;" offset="0.4375"/><stop style="stop-color:#3856e8;stop-opacity:1;" offset="0.453125"/><stop style="stop-color:#3856e8;stop-opacity:1;" offset="0.46875"/><stop style="stop-color:#3955e8;stop-opacity:1;" offset="0.484375"/><stop style="stop-color:#3a55e8;stop-opacity:1;" offset="0.5"/><stop style="stop-color:#3a54e8;stop-opacity:1;" offset="0.5"/><stop style="stop-color:#3b54e8;stop-opacity:1;" offset="0.515625"/><stop style="stop-color:#3b54e8;stop-opacity:1;" offset="0.53125"/><stop style="stop-color:#3c53e8;stop-opacity:1;" offset="0.546875"/><stop style="stop-color:#3c53e8;stop-opacity:1;" offset="0.5625"/><stop style="stop-color:#3d53e8;stop-opacity:1;" offset="0.578125"/><stop style="stop-color:#3e52e8;stop-opacity:1;" offset="0.59375"/><stop style="stop-color:#3e52e7;stop-opacity:1;" offset="0.609375"/><stop style="stop-color:#3f51e7;stop-opacity:1;" offset="0.625"/><stop style="stop-color:#4051e7;stop-opacity:1;" offset="0.640625"/><stop style="stop-color:#4050e7;stop-opacity:1;" offset="0.65625"/><stop style="stop-color:#4150e7;stop-opacity:1;" offset="0.671875"/><stop style="stop-color:#424fe7;stop-opacity:1;" offset="0.6875"/><stop style="stop-color:#424fe7;stop-opacity:1;" offset="0.703125"/><stop style="stop-color:#434ee7;stop-opacity:1;" offset="0.71875"/><stop style="stop-color:#444ee7;stop-opacity:1;" offset="0.734375"/><stop style="stop-color:#444ee7;stop-opacity:1;" offset="0.75"/><stop style="stop-color:#454de6;stop-opacity:1;" offset="0.765625"/><stop style="stop-color:#464de6;stop-opacity:1;" offset="0.78125"/><stop style="stop-color:#464ce6;stop-opacity:1;" offset="0.796875"/><stop style="stop-color:#474ce6;stop-opacity:1;" offset="0.8125"/><stop style="stop-color:#474be6;stop-opacity:1;" offset="0.828125"/><stop style="stop-color:#484be6;stop-opacity:1;" offset="0.84375"/><stop style="stop-color:#494ae6;stop-opacity:1;" offset="0.859375"/><stop style="stop-color:#494ae6;stop-opacity:1;" offset="0.875"/><stop style="stop-color:#4a4ae6;stop-opacity:1;" offset="0.890625"/><stop style="stop-color:#4b49e6;stop-opacity:1;" offset="0.90625"/><stop style="stop-color:#4b49e6;stop-opacity:1;" offset="0.921875"/><stop style="stop-color:#4c48e5;stop-opacity:1;" offset="0.9375"/><stop style="stop-color:#4d48e5;stop-opacity:1;" offset="0.953125"/><stop style="stop-color:#4d47e5;stop-opacity:1;" offset="0.96875"/><stop style="stop-color:#4e47e5;stop-opacity:1;" offset="0.984375"/><stop style="stop-color:#4f46e5;stop-opacity:1;" offset="1"/></linearGradient><clipPath id="93a7d53908"><path d="M 569 414.476562 L 1681 414.476562 L 1681 1830 L 569 1830 Z M 569 414.476562 "/></clipPath><clipPath id="f249d560ef"><path d="M 567.308594 451.960938 L 567.308594 1797.042969 C 567.308594 1817.742188 584.089844 1834.523438 604.792969 1834.523438 L 1645.207031 1834.523438 C 1665.910156 1834.523438 1682.691406 1817.742188 1682.691406 1797.042969 L 1682.691406 451.960938 C 1682.691406 431.257812 1665.910156 414.476562 1645.207031 414.476562 L 604.792969 414.476562 C 584.089844 414.476562 567.308594 431.257812 567.308594 451.960938 Z M 567.308594 451.960938 "/></clipPath></defs><g id="748d502bdc"><g clip-rule="nonzero" clip-path="url(#57d03aeb35)"><g clip-rule="nonzero" clip-path="url(#0d2c364bf9)"><path style=" stroke:none;fill-rule:nonzero;fill:url(#37cff8fcba);" d="M 0.5 0 L 0.5 2249 L 2249.5 2249 L 2249.5 0 Z M 0.5 0 "/></g></g><g clip-rule="nonzero" clip-path="url(#93a7d53908)"><g clip-rule="nonzero" clip-path="url(#f249d560ef)"><path style=" stroke:none;fill-rule:evenodd;fill:#ffffff;fill-opacity:1;" d="M 1124.925781 414.476562 C 818.164062 414.476562 569.105469 663.535156 569.105469 970.296875 C 569.105469 1110.667969 652.679688 1277.5625 756.011719 1426.019531 C 904.519531 1639.453125 1090.164062 1815.445312 1090.164062 1815.445312 C 1109.667969 1833.890625 1140.1875 1833.890625 1159.691406 1815.445312 C 1159.691406 1815.445312 1345.335938 1639.453125 1493.839844 1426.019531 C 1597.171875 1277.5625 1680.746094 1110.667969 1680.746094 970.296875 C 1680.746094 663.535156 1431.6875 414.476562 1124.925781 414.476562 Z M 1124.925781 515.535156 C 1375.90625 515.535156 1579.6875 719.316406 1579.6875 970.296875 C 1579.6875 1093.488281 1501.570312 1238 1410.871094 1368.3125 C 1306.832031 1517.828125 1183.792969 1648.246094 1124.925781 1707.769531 C 1066.058594 1648.246094 943.023438 1517.828125 838.980469 1368.3125 C 748.28125 1238 670.164062 1093.484375 670.164062 970.296875 C 670.164062 719.316406 873.949219 515.535156 1124.925781 515.535156 Z M 1124.925781 692.386719 C 971.519531 692.386719 847.015625 816.890625 847.015625 970.296875 C 847.015625 1123.703125 971.519531 1248.207031 1124.925781 1248.207031 C 1278.332031 1248.207031 1402.835938 1123.703125 1402.835938 970.296875 C 1402.835938 816.890625 1278.332031 692.386719 1124.925781 692.386719 Z M 1124.925781 793.445312 C 1222.550781 793.445312 1301.777344 872.675781 1301.777344 970.296875 C 1301.777344 1067.917969 1222.550781 1147.148438 1124.925781 1147.148438 C 1027.304688 1147.148438 948.074219 1067.917969 948.074219 970.296875 C 948.074219 872.675781 1027.304688 793.445312 1124.925781 793.445312 Z M 1124.925781 793.445312 "/></g></g></g></svg>